<?xml version="1.0" encoding="UTF-8" standalone="no"?>
<svg
   xmlns:dc="http://purl.org/dc/elements/1.1/"
   xmlns:cc="http://creativecommons.org/ns#"
   xmlns:rdf="http://www.w3.org/1999/02/22-rdf-syntax-ns#"
   xmlns:svg="http://www.w3.org/2000/svg"
   xmlns="http://www.w3.org/2000/svg"
   xmlns:sodipodi="http://sodipodi.sourceforge.net/DTD/sodipodi-0.dtd"
   xmlns:inkscape="http://www.inkscape.org/namespaces/inkscape"
   version="1.0"
   width="1280.000000pt"
   height="1023.000000pt"
   viewBox="0 0 1280.000000 1023.000000"
   preserveAspectRatio="xMidYMid meet"
   id="svg3686"
   sodipodi:docname="img-mask.svg"
   inkscape:version="0.92.1 r15371">
  <defs
     id="defs3690" />
  <sodipodi:namedview
     pagecolor="#ffffff"
     bordercolor="#666666"
     borderopacity="1"
     objecttolerance="10"
     gridtolerance="10"
     guidetolerance="10"
     inkscape:pageopacity="0"
     inkscape:pageshadow="2"
     inkscape:window-width="1920"
     inkscape:window-height="1017"
     id="namedview3688"
     showgrid="false"
     inkscape:zoom="0.59017595"
     inkscape:cx="755.90476"
     inkscape:cy="682"
     inkscape:window-x="-8"
     inkscape:window-y="1072"
     inkscape:window-maximized="1"
     inkscape:current-layer="svg3686" />
  <metadata
     id="metadata3680">
Created by potrace 1.15, written by Peter Selinger 2001-2017
<rdf:RDF>
  <cc:Work
     rdf:about="">
    <dc:format>image/svg+xml</dc:format>
    <dc:type
       rdf:resource="http://purl.org/dc/dcmitype/StillImage" />
  </cc:Work>
</rdf:RDF>
</metadata>
  <path
     style="opacity:0.98999999;fill:#000000;fill-opacity:1;fill-rule:nonzero;stroke:#000000;stroke-width:12.80799998;stroke-linecap:butt;stroke-linejoin:miter;stroke-miterlimit:4;stroke-dasharray:none;stroke-dashoffset:0;stroke-opacity:0.99215686;paint-order:normal"
     d="m 804.87321,1054.7567 c -15.63356,-1.312 -43.72879,-7.6255 -65.23479,-14.6595 -60.0607,-19.644 -105.79904,-47.99024 -151.30621,-93.7716 -31.53696,-31.72698 -52.85483,-61.29991 -72.24338,-100.21864 -22.25089,-44.66433 -33.50362,-87.27686 -36.58106,-138.52733 -4.32751,-72.0687 7.31759,-131.66189 37.52034,-192.00842 19.93986,-39.84076 37.95888,-64.90361 69.24327,-96.31117 56.07539,-56.29617 120.93122,-90.92543 200.42508,-107.01539 17.10574,-3.46229 23.80774,-3.84929 66.46743,-3.83808 51.33972,0.0135 57.80412,0.7496 96.71953,11.01362 131.08078,34.57285 233.35978,138.84392 268.33988,273.56629 7.9,30.42623 8.9355,42.98653 8.137,98.69707 l -0.7234,50.468 -6.8977,26.26336 c -8.7898,33.4678 -14.6517,49.34316 -29.0929,78.79006 -24.5917,50.14432 -59.4996,93.50632 -105.1955,130.67196 -49.2127,40.02597 -127.73162,72.29977 -187.14365,76.92197 -23.06536,1.7945 -70.80828,1.7727 -92.43394,-0.042 z"
     id="path19"
     inkscape:connector-curvature="0"
     transform="scale(0.75000001)" />
</svg>
